<svg xmlns="http://www.w3.org/2000/svg" xmlns:xlink="http://www.w3.org/1999/xlink" width="66" height="66" viewBox="0 0 66 66">
  <defs>
    <filter id="Ellipse_4" x="0" y="0" width="66" height="66" filterUnits="userSpaceOnUse">
      <feOffset input="SourceAlpha"/>
      <feGaussianBlur stdDeviation="5" result="blur"/>
      <feFlood flood-opacity="0.059"/>
      <feComposite operator="in" in2="blur"/>
      <feComposite in="SourceGraphic"/>
    </filter>
  </defs>
  <g id="Group_436" data-name="Group 436" transform="translate(-1581 -18)">
    <g transform="matrix(1, 0, 0, 1, 1581, 18)" filter="url(#Ellipse_4)">
      <circle id="Ellipse_4-2" data-name="Ellipse 4" cx="18" cy="18" r="18" transform="translate(15 15)" fill="#fff"/>
    </g>
    <g id="search" transform="translate(1604.004 42.852)">
      <path id="Path_7" data-name="Path 7" d="M13.739,10.825a6.007,6.007,0,1,0-1.059,1.058l.032.034L15.893,15.1a.75.75,0,0,0,1.061-1.061l-3.182-3.181-.034-.032ZM12.182,3.962a4.5,4.5,0,1,1-6.364,0,4.5,4.5,0,0,1,6.364,0Z" fill-rule="evenodd"/>
    </g>
  </g>
</svg>
